<svg xmlns="http://www.w3.org/2000/svg" xmlns:xlink="http://www.w3.org/1999/xlink" width="100" zoomAndPan="magnify" viewBox="0 0 75 74.999997" height="100" preserveAspectRatio="xMidYMid meet" version="1.0"><defs><clipPath id="f0a97f077c"><path d="M 42.316406 21.484375 L 73.066406 21.484375 L 73.066406 60.484375 L 42.316406 60.484375 Z M 42.316406 21.484375 " clip-rule="nonzero"/></clipPath><clipPath id="31060aca64"><path d="M 46.066406 21.484375 L 69.632812 21.484375 C 71.707031 21.484375 73.382812 23.164062 73.382812 25.234375 L 73.382812 56.675781 C 73.382812 58.746094 71.707031 60.421875 69.632812 60.421875 L 46.066406 60.421875 C 43.996094 60.421875 42.316406 58.746094 42.316406 56.675781 L 42.316406 25.234375 C 42.316406 23.164062 43.996094 21.484375 46.066406 21.484375 Z M 46.066406 21.484375 " clip-rule="nonzero"/></clipPath><clipPath id="7a5504d81b"><path d="M 1.746094 21.484375 L 32.496094 21.484375 L 32.496094 60.484375 L 1.746094 60.484375 Z M 1.746094 21.484375 " clip-rule="nonzero"/></clipPath><clipPath id="754f0d6eff"><path d="M 5.496094 21.484375 L 29.0625 21.484375 C 31.132812 21.484375 32.8125 23.164062 32.8125 25.234375 L 32.8125 56.675781 C 32.8125 58.746094 31.132812 60.421875 29.0625 60.421875 L 5.496094 60.421875 C 3.425781 60.421875 1.746094 58.746094 1.746094 56.675781 L 1.746094 25.234375 C 1.746094 23.164062 3.425781 21.484375 5.496094 21.484375 Z M 5.496094 21.484375 " clip-rule="nonzero"/></clipPath><clipPath id="4a77c024f2"><path d="M 22.546875 18.757812 L 52.453125 18.757812 L 52.453125 56.257812 L 22.546875 56.257812 Z M 22.546875 18.757812 " clip-rule="nonzero"/></clipPath><clipPath id="48ac439cd4"><path d="M 26.296875 18.757812 L 48.703125 18.757812 C 50.777344 18.757812 52.453125 20.433594 52.453125 22.507812 L 52.453125 52.492188 C 52.453125 54.566406 50.777344 56.242188 48.703125 56.242188 L 26.296875 56.242188 C 24.222656 56.242188 22.546875 54.566406 22.546875 52.492188 L 22.546875 22.507812 C 22.546875 20.433594 24.222656 18.757812 26.296875 18.757812 Z M 26.296875 18.757812 " clip-rule="nonzero"/></clipPath><clipPath id="1a46c502d8"><path d="M 22.546875 18.757812 L 52.546875 18.757812 L 52.546875 56.257812 L 22.546875 56.257812 Z M 22.546875 18.757812 " clip-rule="nonzero"/></clipPath><clipPath id="1e6d147ea7"><path d="M 26.296875 18.757812 L 48.699219 18.757812 C 50.769531 18.757812 52.449219 20.433594 52.449219 22.503906 L 52.449219 52.484375 C 52.449219 54.554688 50.769531 56.234375 48.699219 56.234375 L 26.296875 56.234375 C 24.226562 56.234375 22.546875 54.554688 22.546875 52.484375 L 22.546875 22.503906 C 22.546875 20.433594 24.226562 18.757812 26.296875 18.757812 Z M 26.296875 18.757812 " clip-rule="nonzero"/></clipPath></defs><g clip-path="url(#f0a97f077c)"><g clip-path="url(#31060aca64)"><path stroke-linecap="butt" transform="matrix(0.75, 0, 0, 0.75, 42.317458, 21.485847)" fill="none" stroke-linejoin="miter" d="M 4.998598 -0.00196331 L 36.420476 -0.00196331 C 39.186101 -0.00196331 41.420476 2.23762 41.420476 4.998037 L 41.420476 46.919916 C 41.420476 49.680332 39.186101 51.914708 36.420476 51.914708 L 4.998598 51.914708 C 2.238181 51.914708 -0.00140239 49.680332 -0.00140239 46.919916 L -0.00140239 4.998037 C -0.00140239 2.23762 2.238181 -0.00196331 4.998598 -0.00196331 Z M 4.998598 -0.00196331 " stroke="#000000" stroke-width="4" stroke-opacity="1" stroke-miterlimit="4"/></g></g><g clip-path="url(#7a5504d81b)"><g clip-path="url(#754f0d6eff)"><path stroke-linecap="butt" transform="matrix(0.75, 0, 0, 0.75, 1.746033, 21.485847)" fill="none" stroke-linejoin="miter" d="M 5.000081 -0.00196331 L 36.421959 -0.00196331 C 39.182376 -0.00196331 41.421959 2.23762 41.421959 4.998037 L 41.421959 46.919916 C 41.421959 49.680332 39.182376 51.914708 36.421959 51.914708 L 5.000081 51.914708 C 2.239664 51.914708 0.0000808861 49.680332 0.0000808861 46.919916 L 0.0000808861 4.998037 C 0.0000808861 2.23762 2.239664 -0.00196331 5.000081 -0.00196331 Z M 5.000081 -0.00196331 " stroke="#000000" stroke-width="4" stroke-opacity="1" stroke-miterlimit="4"/></g></g><g clip-path="url(#4a77c024f2)"><g clip-path="url(#48ac439cd4)"><path fill="#ffffff" d="M 22.546875 18.757812 L 52.453125 18.757812 L 52.453125 56.257812 L 22.546875 56.257812 Z M 22.546875 18.757812 " fill-opacity="1" fill-rule="nonzero"/></g></g><g clip-path="url(#1a46c502d8)"><g clip-path="url(#1e6d147ea7)"><path stroke-linecap="butt" transform="matrix(0.75, 0, 0, 0.75, 22.548391, 18.756331)" fill="none" stroke-linejoin="miter" d="M 4.997979 0.00197524 L 34.867773 0.00197524 C 37.62819 0.00197524 39.867774 2.23635 39.867774 4.996767 L 39.867774 44.970729 C 39.867774 47.731146 37.62819 49.970729 34.867773 49.970729 L 4.997979 49.970729 C 2.237562 49.970729 -0.00202114 47.731146 -0.00202114 44.970729 L -0.00202114 4.996767 C -0.00202114 2.23635 2.237562 0.00197524 4.997979 0.00197524 Z M 4.997979 0.00197524 " stroke="#000000" stroke-width="4" stroke-opacity="1" stroke-miterlimit="4"/></g></g></svg>